<mxfile host="app.diagrams.net" modified="2020-09-17T16:16:26.876Z" agent="5.0 (Windows NT 10.0; Win64; x64) AppleWebKit/537.36 (KHTML, like Gecko) Chrome/85.0.4183.102 Safari/537.36" etag="_pFUTYarjZxbDonNhl2w" version="13.7.3" type="github">
  <diagram id="prtHgNgQTEPvFCAcTncT" name="Page-1">
    <mxGraphModel dx="1865" dy="580" grid="1" gridSize="10" guides="1" tooltips="1" connect="1" arrows="1" fold="1" page="1" pageScale="1" pageWidth="827" pageHeight="1169" math="0" shadow="0">
      <root>
        <mxCell id="0" />
        <mxCell id="1" parent="0" />
        <mxCell id="suDGpM_wzLqVg-kks37f-1" value="&lt;font style=&quot;font-size: 14px&quot;&gt;Discovery Service&lt;/font&gt;" style="ellipse;whiteSpace=wrap;html=1;fillColor=#dae8fc;strokeColor=#6c8ebf;" vertex="1" parent="1">
          <mxGeometry x="350" y="30" width="310" height="60" as="geometry" />
        </mxCell>
        <mxCell id="suDGpM_wzLqVg-kks37f-2" value="&lt;font style=&quot;font-size: 14px&quot;&gt;Account Service&lt;/font&gt;" style="ellipse;whiteSpace=wrap;html=1;fillColor=#dae8fc;strokeColor=#6c8ebf;" vertex="1" parent="1">
          <mxGeometry x="700" y="190" width="310" height="60" as="geometry" />
        </mxCell>
        <mxCell id="suDGpM_wzLqVg-kks37f-3" value="&lt;font style=&quot;font-size: 14px&quot;&gt;Customer Service&lt;/font&gt;" style="ellipse;whiteSpace=wrap;html=1;fillColor=#dae8fc;strokeColor=#6c8ebf;" vertex="1" parent="1">
          <mxGeometry x="350" y="290" width="310" height="60" as="geometry" />
        </mxCell>
        <mxCell id="suDGpM_wzLqVg-kks37f-4" value="&lt;font style=&quot;font-size: 14px&quot;&gt;Banking Service&lt;/font&gt;" style="ellipse;whiteSpace=wrap;html=1;fillColor=#dae8fc;strokeColor=#6c8ebf;" vertex="1" parent="1">
          <mxGeometry y="190" width="310" height="60" as="geometry" />
        </mxCell>
        <mxCell id="suDGpM_wzLqVg-kks37f-9" value="DB" style="strokeWidth=2;html=1;shape=mxgraph.flowchart.database;whiteSpace=wrap;fillColor=#d5e8d4;strokeColor=#82b366;" vertex="1" parent="1">
          <mxGeometry x="-70" y="280" width="60" height="60" as="geometry" />
        </mxCell>
        <mxCell id="suDGpM_wzLqVg-kks37f-19" value="" style="endArrow=classic;html=1;entryX=0;entryY=0.5;entryDx=0;entryDy=0;exitX=0.5;exitY=0;exitDx=0;exitDy=0;" edge="1" parent="1" source="suDGpM_wzLqVg-kks37f-4" target="suDGpM_wzLqVg-kks37f-1">
          <mxGeometry relative="1" as="geometry">
            <mxPoint x="410" y="300" as="sourcePoint" />
            <mxPoint x="510" y="300" as="targetPoint" />
            <Array as="points" />
          </mxGeometry>
        </mxCell>
        <mxCell id="suDGpM_wzLqVg-kks37f-20" value="Service Register" style="edgeLabel;resizable=0;html=1;align=center;verticalAlign=middle;" connectable="0" vertex="1" parent="suDGpM_wzLqVg-kks37f-19">
          <mxGeometry relative="1" as="geometry" />
        </mxCell>
        <mxCell id="suDGpM_wzLqVg-kks37f-21" value="" style="endArrow=classic;html=1;entryX=0.5;entryY=1;entryDx=0;entryDy=0;exitX=0.5;exitY=0;exitDx=0;exitDy=0;" edge="1" parent="1" source="suDGpM_wzLqVg-kks37f-3" target="suDGpM_wzLqVg-kks37f-1">
          <mxGeometry relative="1" as="geometry">
            <mxPoint x="340" y="220" as="sourcePoint" />
            <mxPoint x="535" y="90" as="targetPoint" />
            <Array as="points" />
          </mxGeometry>
        </mxCell>
        <mxCell id="suDGpM_wzLqVg-kks37f-22" value="Service Register" style="edgeLabel;resizable=0;html=1;align=center;verticalAlign=middle;" connectable="0" vertex="1" parent="suDGpM_wzLqVg-kks37f-21">
          <mxGeometry relative="1" as="geometry" />
        </mxCell>
        <mxCell id="suDGpM_wzLqVg-kks37f-23" value="" style="endArrow=classic;html=1;entryX=1;entryY=0.5;entryDx=0;entryDy=0;exitX=0.5;exitY=0;exitDx=0;exitDy=0;" edge="1" parent="1" source="suDGpM_wzLqVg-kks37f-2" target="suDGpM_wzLqVg-kks37f-1">
          <mxGeometry relative="1" as="geometry">
            <mxPoint x="750" y="200" as="sourcePoint" />
            <mxPoint x="945" y="70" as="targetPoint" />
            <Array as="points" />
          </mxGeometry>
        </mxCell>
        <mxCell id="suDGpM_wzLqVg-kks37f-24" value="Service Register" style="edgeLabel;resizable=0;html=1;align=center;verticalAlign=middle;" connectable="0" vertex="1" parent="suDGpM_wzLqVg-kks37f-23">
          <mxGeometry relative="1" as="geometry" />
        </mxCell>
        <mxCell id="suDGpM_wzLqVg-kks37f-28" value="DB" style="strokeWidth=2;html=1;shape=mxgraph.flowchart.database;whiteSpace=wrap;fillColor=#d5e8d4;strokeColor=#82b366;" vertex="1" parent="1">
          <mxGeometry x="1060" y="260" width="60" height="60" as="geometry" />
        </mxCell>
        <mxCell id="suDGpM_wzLqVg-kks37f-29" value="DB" style="strokeWidth=2;html=1;shape=mxgraph.flowchart.database;whiteSpace=wrap;fillColor=#d5e8d4;strokeColor=#82b366;" vertex="1" parent="1">
          <mxGeometry x="475" y="370" width="60" height="60" as="geometry" />
        </mxCell>
        <mxCell id="suDGpM_wzLqVg-kks37f-30" value="" style="endArrow=classic;html=1;entryX=0.5;entryY=0;entryDx=0;entryDy=0;entryPerimeter=0;exitX=0;exitY=0.5;exitDx=0;exitDy=0;" edge="1" parent="1" source="suDGpM_wzLqVg-kks37f-4" target="suDGpM_wzLqVg-kks37f-9">
          <mxGeometry width="50" height="50" relative="1" as="geometry">
            <mxPoint x="-40" y="280" as="sourcePoint" />
            <mxPoint x="10" y="230" as="targetPoint" />
            <Array as="points">
              <mxPoint x="-40" y="220" />
            </Array>
          </mxGeometry>
        </mxCell>
        <mxCell id="suDGpM_wzLqVg-kks37f-31" value="" style="endArrow=classic;html=1;entryX=0.5;entryY=0;entryDx=0;entryDy=0;entryPerimeter=0;exitX=0.5;exitY=1;exitDx=0;exitDy=0;" edge="1" parent="1" source="suDGpM_wzLqVg-kks37f-3" target="suDGpM_wzLqVg-kks37f-29">
          <mxGeometry width="50" height="50" relative="1" as="geometry">
            <mxPoint x="280" y="320" as="sourcePoint" />
            <mxPoint x="330" y="270" as="targetPoint" />
          </mxGeometry>
        </mxCell>
        <mxCell id="suDGpM_wzLqVg-kks37f-32" value="" style="endArrow=classic;html=1;entryX=0.5;entryY=0;entryDx=0;entryDy=0;entryPerimeter=0;exitX=1;exitY=0.5;exitDx=0;exitDy=0;" edge="1" parent="1" source="suDGpM_wzLqVg-kks37f-2">
          <mxGeometry width="50" height="50" relative="1" as="geometry">
            <mxPoint x="1130" y="200" as="sourcePoint" />
            <mxPoint x="1090" y="260" as="targetPoint" />
            <Array as="points">
              <mxPoint x="1090" y="220" />
            </Array>
          </mxGeometry>
        </mxCell>
        <mxCell id="suDGpM_wzLqVg-kks37f-33" value="Active MQ" style="strokeWidth=2;html=1;shape=mxgraph.flowchart.direct_data;whiteSpace=wrap;fillColor=#fff2cc;strokeColor=#d6b656;" vertex="1" parent="1">
          <mxGeometry x="270" y="560" width="440" height="120" as="geometry" />
        </mxCell>
        <mxCell id="suDGpM_wzLqVg-kks37f-36" value="&lt;font style=&quot;font-size: 15px&quot;&gt;create-user-queue&lt;/font&gt;" style="endArrow=classic;html=1;exitX=0.766;exitY=0.955;exitDx=0;exitDy=0;entryX=0.152;entryY=1.01;entryDx=0;entryDy=0;entryPerimeter=0;exitPerimeter=0;" edge="1" parent="1" source="suDGpM_wzLqVg-kks37f-4" target="suDGpM_wzLqVg-kks37f-33">
          <mxGeometry x="-0.2849" relative="1" as="geometry">
            <mxPoint x="41.398448916085044" y="241.21320343559648" as="sourcePoint" />
            <mxPoint x="340" y="760" as="targetPoint" />
            <Array as="points">
              <mxPoint x="237" y="720" />
              <mxPoint x="337" y="720" />
            </Array>
            <mxPoint as="offset" />
          </mxGeometry>
        </mxCell>
        <mxCell id="suDGpM_wzLqVg-kks37f-38" value="producer" style="edgeLabel;resizable=0;html=1;align=left;verticalAlign=bottom;" connectable="0" vertex="1" parent="suDGpM_wzLqVg-kks37f-36">
          <mxGeometry x="-1" relative="1" as="geometry" />
        </mxCell>
        <mxCell id="suDGpM_wzLqVg-kks37f-40" value="&lt;font style=&quot;font-size: 14px&quot;&gt;create-user-queue&lt;/font&gt;" style="endArrow=classic;html=1;entryX=0;entryY=0.5;entryDx=0;entryDy=0;" edge="1" parent="1" target="suDGpM_wzLqVg-kks37f-3">
          <mxGeometry x="0.209" relative="1" as="geometry">
            <mxPoint x="350" y="560" as="sourcePoint" />
            <mxPoint x="322.44000000000005" y="648.2" as="targetPoint" />
            <Array as="points" />
            <mxPoint as="offset" />
          </mxGeometry>
        </mxCell>
        <mxCell id="suDGpM_wzLqVg-kks37f-42" value="Consumer" style="edgeLabel;resizable=0;html=1;align=right;verticalAlign=bottom;" connectable="0" vertex="1" parent="suDGpM_wzLqVg-kks37f-40">
          <mxGeometry x="1" relative="1" as="geometry">
            <mxPoint x="-250" y="-60" as="offset" />
          </mxGeometry>
        </mxCell>
        <mxCell id="suDGpM_wzLqVg-kks37f-44" value="" style="endArrow=classic;html=1;exitX=0.234;exitY=1.021;exitDx=0;exitDy=0;exitPerimeter=0;" edge="1" parent="1">
          <mxGeometry relative="1" as="geometry">
            <mxPoint x="436.53999999999996" y="351.26" as="sourcePoint" />
            <mxPoint x="437" y="557" as="targetPoint" />
          </mxGeometry>
        </mxCell>
        <mxCell id="suDGpM_wzLqVg-kks37f-45" value="create-customer-success-queue" style="edgeLabel;resizable=0;html=1;align=center;verticalAlign=middle;fontSize=14;" connectable="0" vertex="1" parent="suDGpM_wzLqVg-kks37f-44">
          <mxGeometry relative="1" as="geometry">
            <mxPoint x="17.23" y="15.88" as="offset" />
          </mxGeometry>
        </mxCell>
        <mxCell id="suDGpM_wzLqVg-kks37f-46" value="Source" style="edgeLabel;resizable=0;html=1;align=left;verticalAlign=bottom;" connectable="0" vertex="1" parent="suDGpM_wzLqVg-kks37f-44">
          <mxGeometry x="-1" relative="1" as="geometry" />
        </mxCell>
        <mxCell id="suDGpM_wzLqVg-kks37f-47" value="" style="endArrow=classic;html=1;exitX=0.379;exitY=1.021;exitDx=0;exitDy=0;exitPerimeter=0;" edge="1" parent="1" source="suDGpM_wzLqVg-kks37f-33">
          <mxGeometry relative="1" as="geometry">
            <mxPoint x="430" y="680" as="sourcePoint" />
            <mxPoint x="78" y="250" as="targetPoint" />
            <Array as="points">
              <mxPoint x="437" y="760" />
              <mxPoint x="78" y="760" />
            </Array>
          </mxGeometry>
        </mxCell>
        <mxCell id="suDGpM_wzLqVg-kks37f-48" value="create-customer-success-queue" style="edgeLabel;resizable=0;html=1;align=center;verticalAlign=middle;fontSize=15;" connectable="0" vertex="1" parent="suDGpM_wzLqVg-kks37f-47">
          <mxGeometry relative="1" as="geometry">
            <mxPoint x="17.23" y="-177.32" as="offset" />
          </mxGeometry>
        </mxCell>
        <mxCell id="suDGpM_wzLqVg-kks37f-51" value="Consumer" style="edgeLabel;resizable=0;html=1;align=right;verticalAlign=bottom;" connectable="0" vertex="1" parent="1">
          <mxGeometry x="359.9999999999977" y="330.0000000000001" as="geometry" />
        </mxCell>
        <mxCell id="suDGpM_wzLqVg-kks37f-52" value="" style="endArrow=classic;html=1;exitX=0.234;exitY=1.021;exitDx=0;exitDy=0;exitPerimeter=0;entryX=0.717;entryY=0.009;entryDx=0;entryDy=0;entryPerimeter=0;" edge="1" parent="1" target="suDGpM_wzLqVg-kks37f-33">
          <mxGeometry relative="1" as="geometry">
            <mxPoint x="700" y="224.26" as="sourcePoint" />
            <mxPoint x="700.46" y="429.9999999999998" as="targetPoint" />
            <Array as="points">
              <mxPoint x="700" y="450" />
              <mxPoint x="700" y="520" />
              <mxPoint x="585" y="520" />
            </Array>
          </mxGeometry>
        </mxCell>
        <mxCell id="suDGpM_wzLqVg-kks37f-53" value="transaction-status-queue" style="edgeLabel;resizable=0;html=1;align=center;verticalAlign=middle;fontSize=14;" connectable="0" vertex="1" parent="suDGpM_wzLqVg-kks37f-52">
          <mxGeometry relative="1" as="geometry">
            <mxPoint x="17.23" y="15.88" as="offset" />
          </mxGeometry>
        </mxCell>
        <mxCell id="suDGpM_wzLqVg-kks37f-54" value="Source" style="edgeLabel;resizable=0;html=1;align=left;verticalAlign=bottom;" connectable="0" vertex="1" parent="suDGpM_wzLqVg-kks37f-52">
          <mxGeometry x="-1" relative="1" as="geometry" />
        </mxCell>
        <mxCell id="suDGpM_wzLqVg-kks37f-71" style="edgeStyle=orthogonalEdgeStyle;rounded=0;orthogonalLoop=1;jettySize=auto;html=1;exitX=0;exitY=0.5;exitDx=0;exitDy=0;entryX=1;entryY=0.5;entryDx=0;entryDy=0;fontSize=15;" edge="1" parent="1" source="suDGpM_wzLqVg-kks37f-55" target="suDGpM_wzLqVg-kks37f-70">
          <mxGeometry relative="1" as="geometry" />
        </mxCell>
        <mxCell id="suDGpM_wzLqVg-kks37f-55" value="&lt;font style=&quot;font-size: 14px&quot;&gt;Notification Service&lt;/font&gt;" style="ellipse;whiteSpace=wrap;html=1;fillColor=#dae8fc;strokeColor=#6c8ebf;" vertex="1" parent="1">
          <mxGeometry x="350" y="880" width="310" height="60" as="geometry" />
        </mxCell>
        <mxCell id="suDGpM_wzLqVg-kks37f-56" value="&lt;span style=&quot;font-size: 14px&quot;&gt;transaction-status-queue&lt;/span&gt;" style="endArrow=classic;html=1;exitX=0.704;exitY=1.021;exitDx=0;exitDy=0;exitPerimeter=0;" edge="1" parent="1" source="suDGpM_wzLqVg-kks37f-33" target="suDGpM_wzLqVg-kks37f-55">
          <mxGeometry x="-0.2846" relative="1" as="geometry">
            <mxPoint x="630" y="890" as="sourcePoint" />
            <mxPoint x="630" y="690" as="targetPoint" />
            <Array as="points">
              <mxPoint x="580" y="840" />
              <mxPoint x="503" y="840" />
            </Array>
            <mxPoint as="offset" />
          </mxGeometry>
        </mxCell>
        <mxCell id="suDGpM_wzLqVg-kks37f-57" value="Consumer" style="edgeLabel;resizable=0;html=1;align=right;verticalAlign=bottom;" connectable="0" vertex="1" parent="suDGpM_wzLqVg-kks37f-56">
          <mxGeometry x="1" relative="1" as="geometry">
            <mxPoint x="45.519999999999996" y="-19.610000000000014" as="offset" />
          </mxGeometry>
        </mxCell>
        <mxCell id="suDGpM_wzLqVg-kks37f-59" style="edgeStyle=orthogonalEdgeStyle;rounded=0;orthogonalLoop=1;jettySize=auto;html=1;exitX=1;exitY=0.5;exitDx=0;exitDy=0;exitPerimeter=0;entryX=0.34;entryY=0.004;entryDx=0;entryDy=0;entryPerimeter=0;fontSize=15;" edge="1" parent="1" source="suDGpM_wzLqVg-kks37f-58" target="suDGpM_wzLqVg-kks37f-4">
          <mxGeometry relative="1" as="geometry" />
        </mxCell>
        <mxCell id="suDGpM_wzLqVg-kks37f-58" value="Client" style="strokeWidth=2;html=1;shape=mxgraph.flowchart.terminator;whiteSpace=wrap;fontSize=15;fillColor=#e1d5e7;strokeColor=#9673a6;" vertex="1" parent="1">
          <mxGeometry x="-210" y="40" width="100" height="60" as="geometry" />
        </mxCell>
        <mxCell id="suDGpM_wzLqVg-kks37f-63" value="" style="endArrow=classic;html=1;fontSize=15;exitX=1;exitY=0.5;exitDx=0;exitDy=0;" edge="1" parent="1" source="suDGpM_wzLqVg-kks37f-4">
          <mxGeometry relative="1" as="geometry">
            <mxPoint x="330" y="340" as="sourcePoint" />
            <mxPoint x="430" y="300" as="targetPoint" />
            <Array as="points">
              <mxPoint x="430" y="220" />
            </Array>
          </mxGeometry>
        </mxCell>
        <mxCell id="suDGpM_wzLqVg-kks37f-64" value="" style="shape=message;html=1;outlineConnect=0;" vertex="1" parent="suDGpM_wzLqVg-kks37f-63">
          <mxGeometry width="20" height="14" relative="1" as="geometry">
            <mxPoint x="-10" y="-7" as="offset" />
          </mxGeometry>
        </mxCell>
        <mxCell id="suDGpM_wzLqVg-kks37f-65" value="" style="endArrow=classic;html=1;fontSize=15;exitX=1;exitY=0;exitDx=0;exitDy=0;entryX=0;entryY=0;entryDx=0;entryDy=0;" edge="1" parent="1">
          <mxGeometry relative="1" as="geometry">
            <mxPoint x="255.3711471362185" y="198.93680398163747" as="sourcePoint" />
            <mxPoint x="734.6288528637883" y="198.93680398163895" as="targetPoint" />
            <Array as="points">
              <mxPoint x="255" y="160" />
              <mxPoint x="620" y="160" />
              <mxPoint x="735" y="160" />
            </Array>
          </mxGeometry>
        </mxCell>
        <mxCell id="suDGpM_wzLqVg-kks37f-66" value="" style="shape=message;html=1;outlineConnect=0;" vertex="1" parent="suDGpM_wzLqVg-kks37f-65">
          <mxGeometry width="20" height="14" relative="1" as="geometry">
            <mxPoint x="-80.88" y="-7" as="offset" />
          </mxGeometry>
        </mxCell>
        <mxCell id="suDGpM_wzLqVg-kks37f-68" value="Rest Webservices" style="edgeLabel;html=1;align=center;verticalAlign=middle;resizable=0;points=[];fontSize=15;" vertex="1" connectable="0" parent="suDGpM_wzLqVg-kks37f-65">
          <mxGeometry x="-0.565" y="2" relative="1" as="geometry">
            <mxPoint x="282.76" as="offset" />
          </mxGeometry>
        </mxCell>
        <mxCell id="suDGpM_wzLqVg-kks37f-69" value="Rest Webservices" style="text;html=1;align=center;verticalAlign=middle;resizable=0;points=[];autosize=1;fontSize=15;" vertex="1" parent="1">
          <mxGeometry x="350" y="250" width="140" height="20" as="geometry" />
        </mxCell>
        <mxCell id="suDGpM_wzLqVg-kks37f-70" value="Message Server" style="shape=parallelogram;perimeter=parallelogramPerimeter;whiteSpace=wrap;html=1;fixedSize=1;fontSize=15;fillColor=#f5f5f5;strokeColor=#666666;fontColor=#333333;" vertex="1" parent="1">
          <mxGeometry x="-10" y="880" width="230" height="60" as="geometry" />
        </mxCell>
      </root>
    </mxGraphModel>
  </diagram>
</mxfile>
